<svg xmlns="http://www.w3.org/2000/svg" viewBox="0 0 64 64"><title>1</title><g id="Layer_62" data-name="Layer 62"><path d="M56.17,30a2,2,0,0,0-2,2V54.17H9.83V9.83H32a2,2,0,0,0,0-4H7.83a2,2,0,0,0-2,2V56.17a2,2,0,0,0,2,2H56.17a2,2,0,0,0,2-2V32A2,2,0,0,0,56.17,30Z" id="id_101" style="fill: rgb(117, 117, 117);"></path><path d="M58.13,7.44c0-.06,0-.12-.05-.17a2,2,0,0,0-.06-.2,2,2,0,0,0-.1-.2s0-.1-.08-.15a2,2,0,0,0-.55-.55l-.15-.08-.2-.1-.2-.06-.18-.05a2,2,0,0,0-.38,0H41.34a2,2,0,0,0,0,4h10L30.59,30.59a2,2,0,1,0,2.83,2.83L54.17,12.66v10a2,2,0,0,0,4,0V7.83A2,2,0,0,0,58.13,7.44Z" id="id_102" style="fill: rgb(138, 43, 226);"></path></g></svg>